G04*
G04 #@! TF.GenerationSoftware,Altium Limited,Altium Designer,24.5.2 (23)*
G04*
G04 Layer_Physical_Order=1*
G04 Layer_Color=255*
%FSLAX44Y44*%
%MOMM*%
G71*
G04*
G04 #@! TF.SameCoordinates,504B62B8-D43C-4730-976B-65A65C3D763D*
G04*
G04*
G04 #@! TF.FilePolarity,Positive*
G04*
G01*
G75*
%ADD15C,0.2540*%
%ADD23C,1.2000*%
%ADD24R,1.2000X1.2000*%
%ADD25C,1.4000*%
%ADD26R,1.4000X1.4000*%
%ADD27R,1.4000X1.4000*%
%ADD28R,1.5500X1.5500*%
%ADD29C,1.5500*%
%ADD30R,1.2500X1.2500*%
%ADD31C,1.2500*%
%ADD35O,1.3080X2.6160*%
%ADD36O,2.6160X1.3080*%
%ADD37R,3.0960X3.0960*%
%ADD38C,3.0960*%
%ADD39R,1.5000X1.5000*%
%ADD40C,1.5000*%
%ADD41R,3.0960X3.0960*%
D15*
X359628Y751840D02*
X376090D01*
X355600Y755868D02*
Y1039563D01*
Y755868D02*
X359628Y751840D01*
X355600Y1039563D02*
X399860Y1083823D01*
Y1120351D01*
X404729Y1125220D01*
X405130D01*
X523530Y1085730D02*
X593260Y1016000D01*
X441205Y1125220D02*
X480695Y1085730D01*
X405130Y1125220D02*
X441205D01*
X480695Y1085730D02*
X523530D01*
X556260Y1099820D02*
X587530Y1131090D01*
X473710Y1065530D02*
X482600Y1074420D01*
X473710Y949960D02*
Y1065530D01*
Y949960D02*
X491490Y932180D01*
X584323Y1074420D02*
X590672Y1068070D01*
X556260Y1074420D02*
X584323D01*
X590672Y1068070D02*
X593260D01*
X587530Y1131090D02*
Y1136000D01*
X593260Y1141730D01*
X529590Y752940D02*
X530690Y751840D01*
X529590Y752940D02*
Y805180D01*
X535660Y684530D02*
X552780Y701650D01*
X668020Y524510D02*
X710170Y566660D01*
X664210Y524510D02*
X668020D01*
X664210D02*
X664932Y525232D01*
X710170Y566660D02*
X933610D01*
X734510Y951880D02*
Y1057260D01*
X938360Y613410D02*
X959250Y592520D01*
X942820Y620971D02*
Y709271D01*
X1499870Y908050D02*
X1517650Y890270D01*
Y877170D02*
Y890270D01*
X1405890Y935120D02*
X1432960Y908050D01*
X1499870D01*
X1205882Y929640D02*
X1236362Y960120D01*
X1190270Y929640D02*
X1205882D01*
X1236362Y960120D02*
X1405890D01*
X792480Y702140D02*
Y803910D01*
X777410Y687070D02*
X792480Y702140D01*
X1050290Y699770D02*
X1061600Y711080D01*
X377360Y804298D02*
X386080Y813018D01*
Y868850D01*
X1434060Y828440D02*
X1459230D01*
X1350010Y744390D02*
X1434060Y828440D01*
X1282700Y745660D02*
X1348740D01*
X1281430Y746930D02*
X1282700Y745660D01*
X1348740D02*
X1350010Y744390D01*
X1319360Y929640D02*
X1350010Y898990D01*
X1225270Y929640D02*
X1319360D01*
X1233170Y972540D02*
Y1107440D01*
X1190270Y929640D02*
X1233170Y972540D01*
X1004570Y930502D02*
X1036178Y962110D01*
Y1012448D02*
X1070610Y1046880D01*
X1004570Y872490D02*
Y930502D01*
X1036178Y962110D02*
Y1012448D01*
X979170Y922490D02*
X1024890Y968210D01*
X979170Y821690D02*
Y922490D01*
X929640Y871220D02*
X979170Y821690D01*
X878840Y871220D02*
X929640D01*
X939010Y713081D02*
Y739760D01*
X938360Y613410D02*
Y616511D01*
X933280Y745490D02*
X939010Y739760D01*
Y713081D02*
X942820Y709271D01*
X938360Y616511D02*
X942820Y620971D01*
X1128790Y566660D02*
X1148080Y547370D01*
X994602Y566660D02*
X1128790D01*
X970060Y542118D02*
X994602Y566660D01*
X960347Y542118D02*
X970060D01*
X959250Y541020D02*
X960347Y542118D01*
X959250Y541020D02*
Y592520D01*
X933610Y566660D02*
X959250Y541020D01*
X1204673Y713183D02*
X1217930Y726440D01*
X1092200Y702310D02*
X1127005D01*
X1137878Y713183D01*
X1204673D01*
X1092200Y856910D02*
X1212972D01*
X1215390Y853440D02*
Y854492D01*
X1212972Y856910D02*
X1215390Y854492D01*
Y853440D02*
X1229240Y839590D01*
Y712350D02*
Y839590D01*
X1217930Y701040D02*
X1229240Y712350D01*
X1129150Y688460D02*
X1141730Y701040D01*
X1024070Y688460D02*
X1129150D01*
X1012760Y699770D02*
X1024070Y688460D01*
X974090Y699770D02*
X1012760D01*
X1061600Y711080D02*
Y804287D01*
X1024890Y840997D02*
X1061600Y804287D01*
X1024890Y840997D02*
Y918210D01*
X1004570Y805695D02*
X1048385Y761880D01*
Y752475D02*
Y761880D01*
Y752475D02*
X1050290Y750570D01*
X1049020Y777240D02*
X1050290Y775970D01*
X1004570Y805695D02*
Y872490D01*
X626255Y846945D02*
X666750Y806450D01*
X626255Y846945D02*
Y862940D01*
X591990Y897205D02*
X626255Y862940D01*
X591990Y897205D02*
Y939800D01*
X707510Y795140D02*
X716280Y803910D01*
X590550Y806450D02*
X629220D01*
X640530Y795140D01*
X707510D01*
X738860Y720090D02*
Y801090D01*
X792480Y854710D01*
X927550Y751220D02*
Y782883D01*
X831850Y878583D02*
Y934720D01*
X927550Y751220D02*
X933280Y745490D01*
X831850Y878583D02*
X927550Y782883D01*
X834390Y688340D02*
X930740D01*
X932010Y687070D01*
X821690Y701040D02*
Y772160D01*
Y701040D02*
X834390Y688340D01*
X803832Y790018D02*
Y817958D01*
X792480Y829310D02*
X803832Y817958D01*
Y790018D02*
X821690Y772160D01*
Y842010D02*
Y938787D01*
Y842010D02*
X843280Y820420D01*
X853440D01*
X838200Y955297D02*
Y1051960D01*
X821690Y938787D02*
X838200Y955297D01*
X634743Y701650D02*
X651913Y718820D01*
X598170Y701650D02*
X634743D01*
X651913Y718820D02*
X702310D01*
X552780Y701650D02*
X598170D01*
X773430Y860008D02*
Y962660D01*
X796290Y985520D02*
X806450D01*
X773430Y962660D02*
X796290Y985520D01*
X773430Y860008D02*
X778728Y854710D01*
X792480D01*
X734510Y1057260D02*
X746590Y1069340D01*
X734510Y951880D02*
X746590Y939800D01*
X929005Y1097515D02*
X1069975D01*
X1070610Y1096880D01*
X928370Y1098150D02*
X929005Y1097515D01*
X838200Y1090930D02*
Y1101960D01*
X935354Y993776D02*
X950594D01*
X838200Y1090930D02*
X935354Y993776D01*
X950594D02*
X952500Y991870D01*
X704970Y898180D02*
X746590Y939800D01*
X666750Y831850D02*
X704970Y870070D01*
Y898180D01*
X569595Y997070D02*
Y1006475D01*
X666750Y882650D02*
Y899915D01*
X567690Y1008380D02*
X569595Y1006475D01*
Y997070D02*
X666750Y899915D01*
X556260Y840740D02*
X590550Y806450D01*
X491490Y853440D02*
Y932180D01*
X504190Y840740D02*
X556260D01*
X491490Y853440D02*
X504190Y840740D01*
X386080Y921090D02*
X441960Y865210D01*
X386080Y921090D02*
Y1023450D01*
X378800Y802640D02*
Y803028D01*
D23*
X355130Y1125220D02*
D03*
Y1150220D02*
D03*
X405130Y1075220D02*
D03*
X455130Y1125220D02*
D03*
Y1150220D02*
D03*
X928370Y1098150D02*
D03*
X838200Y1051960D02*
D03*
X1024890Y918210D02*
D03*
X1459230Y878440D02*
D03*
X1517650Y877170D02*
D03*
X1070610Y1096880D02*
D03*
D24*
X928370Y1048150D02*
D03*
X838200Y1101960D02*
D03*
X1024890Y968210D02*
D03*
X1459230Y828440D02*
D03*
X1517650Y827170D02*
D03*
X1070610Y1046880D02*
D03*
D25*
X1281430Y746930D02*
D03*
X984250Y541020D02*
D03*
X959250D02*
D03*
X737310Y718820D02*
D03*
X1190270Y929640D02*
D03*
X535660Y684530D02*
D03*
X747860Y1141730D02*
D03*
X441960Y1019810D02*
D03*
X386080Y1023450D02*
D03*
X747860Y1016000D02*
D03*
X376090Y751840D02*
D03*
X593260Y1068070D02*
D03*
X374990Y805180D02*
D03*
X746590Y939800D02*
D03*
X778680Y745490D02*
D03*
X1350010Y744390D02*
D03*
X932010Y687070D02*
D03*
X1092200Y856910D02*
D03*
D26*
X1281430Y901530D02*
D03*
X441960Y865210D02*
D03*
X386080Y868850D02*
D03*
X1350010Y898990D02*
D03*
X1092200Y702310D02*
D03*
D27*
X934250Y541020D02*
D03*
X702310Y718820D02*
D03*
X1225270Y929640D02*
D03*
X500660Y684530D02*
D03*
X593260Y1141730D02*
D03*
Y1016000D02*
D03*
X530690Y751840D02*
D03*
X747860Y1068070D02*
D03*
X529590Y805180D02*
D03*
X591990Y939800D02*
D03*
X933280Y745490D02*
D03*
X777410Y687070D02*
D03*
D28*
X1405890Y960120D02*
D03*
D29*
Y935120D02*
D03*
D30*
X857250Y985520D02*
D03*
X927100Y941070D02*
D03*
X1074420Y935990D02*
D03*
X853440Y820420D02*
D03*
X979170Y821690D02*
D03*
X598170Y701650D02*
D03*
D31*
X806450Y985520D02*
D03*
X831850Y934720D02*
D03*
X977900Y941070D02*
D03*
X952500Y991870D02*
D03*
X1099820Y986790D02*
D03*
X1125220Y935990D02*
D03*
X878840Y871220D02*
D03*
X904240Y820420D02*
D03*
X1004570Y872490D02*
D03*
X1029970Y821690D02*
D03*
X623570Y752450D02*
D03*
X648970Y701650D02*
D03*
D35*
X455130Y1075220D02*
D03*
X355130D02*
D03*
D36*
X405130Y1125220D02*
D03*
D37*
X1233170Y1107440D02*
D03*
X715010Y524510D02*
D03*
X1097280Y547370D02*
D03*
D38*
X1182370Y1107440D02*
D03*
X1283970D02*
D03*
X1549400Y767080D02*
D03*
Y665480D02*
D03*
X765810Y524510D02*
D03*
X664210D02*
D03*
X1046480Y547370D02*
D03*
X1148080D02*
D03*
D39*
X567690Y932180D02*
D03*
X558800Y1074420D02*
D03*
X666750Y806450D02*
D03*
X792480Y803910D02*
D03*
X1217930Y701040D02*
D03*
X1050290Y699770D02*
D03*
D40*
X567690Y957580D02*
D03*
Y982980D02*
D03*
Y1008380D02*
D03*
X491490Y932180D02*
D03*
Y957580D02*
D03*
Y982980D02*
D03*
Y1008380D02*
D03*
X558800Y1099820D02*
D03*
Y1125220D02*
D03*
Y1150620D02*
D03*
X482600Y1074420D02*
D03*
Y1099820D02*
D03*
Y1125220D02*
D03*
Y1150620D02*
D03*
X666750Y831850D02*
D03*
Y857250D02*
D03*
Y882650D02*
D03*
X590550Y806450D02*
D03*
Y831850D02*
D03*
Y857250D02*
D03*
Y882650D02*
D03*
X792480Y829310D02*
D03*
Y854710D02*
D03*
Y880110D02*
D03*
X716280Y803910D02*
D03*
Y829310D02*
D03*
Y854710D02*
D03*
Y880110D02*
D03*
X1217930Y726440D02*
D03*
Y751840D02*
D03*
Y777240D02*
D03*
X1141730Y701040D02*
D03*
Y726440D02*
D03*
Y751840D02*
D03*
Y777240D02*
D03*
X1050290Y725170D02*
D03*
Y750570D02*
D03*
Y775970D02*
D03*
X974090Y699770D02*
D03*
Y725170D02*
D03*
Y750570D02*
D03*
Y775970D02*
D03*
D41*
X1549400Y716280D02*
D03*
M02*
