G04*
G04 #@! TF.GenerationSoftware,Altium Limited,Altium Designer,24.5.2 (23)*
G04*
G04 Layer_Color=65535*
%FSLAX44Y44*%
%MOMM*%
G71*
G04*
G04 #@! TF.SameCoordinates,504B62B8-D43C-4730-976B-65A65C3D763D*
G04*
G04*
G04 #@! TF.FilePolarity,Positive*
G04*
G01*
G75*
%ADD10C,0.2000*%
%ADD11C,0.3000*%
%ADD12C,0.2500*%
%ADD13C,0.6000*%
%ADD14C,0.1270*%
%ADD15C,0.2540*%
G36*
X616858Y777506D02*
X615660D01*
Y785132D01*
X615646Y785118D01*
X615575Y785062D01*
X615491Y784977D01*
X615350Y784879D01*
X615195Y784752D01*
X614997Y784611D01*
X614772Y784456D01*
X614518Y784301D01*
X614504D01*
X614490Y784286D01*
X614405Y784230D01*
X614264Y784160D01*
X614095Y784075D01*
X613898Y783976D01*
X613686Y783878D01*
X613475Y783779D01*
X613263Y783695D01*
Y784850D01*
X613277D01*
X613306Y784879D01*
X613362Y784893D01*
X613432Y784935D01*
X613517Y784977D01*
X613616Y785034D01*
X613855Y785175D01*
X614137Y785330D01*
X614419Y785527D01*
X614715Y785753D01*
X615011Y785992D01*
X615025Y786006D01*
X615039Y786021D01*
X615082Y786063D01*
X615138Y786105D01*
X615265Y786246D01*
X615434Y786415D01*
X615603Y786612D01*
X615787Y786838D01*
X615942Y787064D01*
X616083Y787303D01*
X616858D01*
Y777506D01*
D02*
G37*
G36*
X607653Y787247D02*
X607780D01*
X608076Y787233D01*
X608386Y787190D01*
X608724Y787148D01*
X609034Y787078D01*
X609189Y787036D01*
X609316Y786993D01*
X609330D01*
X609344Y786979D01*
X609429Y786937D01*
X609556Y786880D01*
X609711Y786782D01*
X609880Y786655D01*
X610063Y786486D01*
X610232Y786288D01*
X610402Y786063D01*
Y786049D01*
X610416Y786035D01*
X610472Y785950D01*
X610528Y785809D01*
X610613Y785626D01*
X610684Y785414D01*
X610754Y785161D01*
X610796Y784893D01*
X610810Y784597D01*
Y784583D01*
Y784554D01*
Y784498D01*
X610796Y784427D01*
Y784329D01*
X610782Y784230D01*
X610726Y783990D01*
X610641Y783709D01*
X610528Y783412D01*
X610359Y783117D01*
X610247Y782975D01*
X610134Y782835D01*
X610120Y782821D01*
X610106Y782806D01*
X610063Y782764D01*
X610007Y782722D01*
X609936Y782665D01*
X609852Y782609D01*
X609739Y782539D01*
X609626Y782454D01*
X609485Y782383D01*
X609330Y782313D01*
X609161Y782228D01*
X608978Y782158D01*
X608766Y782102D01*
X608555Y782031D01*
X608315Y781989D01*
X608061Y781946D01*
X608090Y781932D01*
X608146Y781904D01*
X608231Y781848D01*
X608343Y781791D01*
X608597Y781636D01*
X608724Y781538D01*
X608837Y781453D01*
X608865Y781425D01*
X608936Y781354D01*
X609048Y781242D01*
X609189Y781101D01*
X609344Y780903D01*
X609528Y780692D01*
X609711Y780438D01*
X609908Y780156D01*
X611586Y777506D01*
X609979D01*
X608696Y779536D01*
Y779550D01*
X608668Y779578D01*
X608639Y779620D01*
X608597Y779677D01*
X608498Y779832D01*
X608372Y780029D01*
X608217Y780241D01*
X608061Y780466D01*
X607906Y780678D01*
X607765Y780875D01*
X607751Y780889D01*
X607709Y780946D01*
X607639Y781030D01*
X607540Y781129D01*
X607328Y781340D01*
X607216Y781439D01*
X607103Y781524D01*
X607089Y781538D01*
X607061Y781552D01*
X607004Y781580D01*
X606920Y781622D01*
X606835Y781665D01*
X606736Y781707D01*
X606511Y781777D01*
X606497D01*
X606469Y781791D01*
X606412D01*
X606342Y781805D01*
X606243Y781820D01*
X606130D01*
X605975Y781834D01*
X604312D01*
Y777506D01*
X603015D01*
Y787261D01*
X607540D01*
X607653Y787247D01*
D02*
G37*
G36*
X623314Y787289D02*
X623427Y787275D01*
X623554Y787261D01*
X623695Y787247D01*
X623836Y787205D01*
X624174Y787120D01*
X624513Y786993D01*
X624682Y786909D01*
X624851Y786810D01*
X625006Y786683D01*
X625161Y786556D01*
X625175Y786542D01*
X625189Y786528D01*
X625232Y786486D01*
X625288Y786429D01*
X625344Y786345D01*
X625415Y786260D01*
X625556Y786049D01*
X625697Y785781D01*
X625824Y785471D01*
X625922Y785118D01*
X625937Y784935D01*
X625951Y784738D01*
Y784724D01*
Y784709D01*
Y784625D01*
X625937Y784498D01*
X625908Y784343D01*
X625866Y784146D01*
X625796Y783948D01*
X625711Y783751D01*
X625584Y783553D01*
X625570Y783525D01*
X625514Y783469D01*
X625429Y783384D01*
X625316Y783272D01*
X625161Y783145D01*
X624978Y783018D01*
X624766Y782891D01*
X624513Y782778D01*
X624527D01*
X624555Y782764D01*
X624597Y782750D01*
X624654Y782722D01*
X624823Y782651D01*
X625020Y782553D01*
X625232Y782412D01*
X625457Y782257D01*
X625669Y782059D01*
X625866Y781834D01*
Y781820D01*
X625880Y781805D01*
X625937Y781721D01*
X626021Y781580D01*
X626106Y781397D01*
X626190Y781171D01*
X626275Y780903D01*
X626331Y780607D01*
X626345Y780283D01*
Y780269D01*
Y780227D01*
Y780156D01*
X626331Y780071D01*
X626317Y779973D01*
X626303Y779846D01*
X626275Y779705D01*
X626232Y779550D01*
X626134Y779226D01*
X626063Y779043D01*
X625965Y778873D01*
X625866Y778690D01*
X625753Y778521D01*
X625612Y778352D01*
X625457Y778183D01*
X625443Y778168D01*
X625415Y778140D01*
X625373Y778098D01*
X625302Y778056D01*
X625203Y777985D01*
X625105Y777915D01*
X624978Y777844D01*
X624837Y777760D01*
X624682Y777675D01*
X624499Y777605D01*
X624301Y777534D01*
X624104Y777464D01*
X623878Y777421D01*
X623639Y777379D01*
X623399Y777351D01*
X623131Y777337D01*
X622990D01*
X622892Y777351D01*
X622765Y777365D01*
X622624Y777379D01*
X622469Y777407D01*
X622299Y777449D01*
X621919Y777548D01*
X621721Y777619D01*
X621538Y777689D01*
X621341Y777788D01*
X621143Y777901D01*
X620960Y778027D01*
X620791Y778183D01*
X620777Y778197D01*
X620749Y778225D01*
X620706Y778267D01*
X620650Y778338D01*
X620594Y778422D01*
X620509Y778521D01*
X620439Y778634D01*
X620354Y778775D01*
X620270Y778916D01*
X620199Y779085D01*
X620058Y779437D01*
X620002Y779649D01*
X619959Y779860D01*
X619931Y780086D01*
X619917Y780311D01*
Y780325D01*
Y780353D01*
Y780410D01*
X619931Y780466D01*
Y780551D01*
X619945Y780649D01*
X619973Y780875D01*
X620030Y781129D01*
X620114Y781383D01*
X620241Y781650D01*
X620396Y781904D01*
Y781918D01*
X620424Y781932D01*
X620481Y782003D01*
X620594Y782116D01*
X620749Y782257D01*
X620946Y782398D01*
X621186Y782553D01*
X621454Y782680D01*
X621778Y782778D01*
X621764D01*
X621750Y782792D01*
X621707Y782806D01*
X621651Y782835D01*
X621524Y782891D01*
X621355Y782975D01*
X621172Y783088D01*
X620988Y783229D01*
X620819Y783384D01*
X620664Y783553D01*
X620650Y783582D01*
X620608Y783638D01*
X620551Y783751D01*
X620495Y783892D01*
X620424Y784075D01*
X620368Y784286D01*
X620326Y784526D01*
X620312Y784780D01*
Y784794D01*
Y784822D01*
Y784879D01*
X620326Y784963D01*
X620340Y785048D01*
X620354Y785161D01*
X620410Y785400D01*
X620495Y785682D01*
X620636Y785978D01*
X620721Y786133D01*
X620819Y786288D01*
X620946Y786429D01*
X621073Y786570D01*
X621087Y786584D01*
X621115Y786599D01*
X621158Y786641D01*
X621214Y786683D01*
X621284Y786739D01*
X621383Y786796D01*
X621496Y786866D01*
X621609Y786937D01*
X621750Y787007D01*
X621905Y787078D01*
X622074Y787134D01*
X622257Y787190D01*
X622652Y787275D01*
X622877Y787289D01*
X623103Y787303D01*
X623230D01*
X623314Y787289D01*
D02*
G37*
G36*
X857342Y720416D02*
X857401D01*
X857483Y720405D01*
X857682Y720370D01*
X857905Y720323D01*
X858151Y720240D01*
X858398Y720135D01*
X858644Y719994D01*
X858656D01*
X858668Y719971D01*
X858703Y719947D01*
X858750Y719912D01*
X858867Y719818D01*
X859020Y719689D01*
X859172Y719513D01*
X859349Y719302D01*
X859501Y719055D01*
X859642Y718774D01*
Y718762D01*
X859654Y718738D01*
X859677Y718691D01*
X859700Y718633D01*
X859724Y718551D01*
X859759Y718445D01*
X859783Y718328D01*
X859818Y718199D01*
X859853Y718046D01*
X859888Y717870D01*
X859912Y717682D01*
X859935Y717483D01*
X859959Y717260D01*
X859982Y717025D01*
X859994Y716767D01*
Y716497D01*
Y716485D01*
Y716427D01*
Y716345D01*
Y716239D01*
X859982Y716110D01*
Y715957D01*
X859970Y715781D01*
X859947Y715605D01*
X859912Y715206D01*
X859853Y714784D01*
X859771Y714385D01*
X859712Y714185D01*
X859654Y714009D01*
Y713998D01*
X859642Y713974D01*
X859618Y713927D01*
X859595Y713857D01*
X859560Y713786D01*
X859513Y713692D01*
X859395Y713493D01*
X859255Y713270D01*
X859090Y713035D01*
X858879Y712812D01*
X858644Y712613D01*
X858633D01*
X858609Y712589D01*
X858574Y712566D01*
X858527Y712542D01*
X858457Y712507D01*
X858386Y712460D01*
X858292Y712413D01*
X858198Y712378D01*
X857975Y712284D01*
X857706Y712202D01*
X857412Y712155D01*
X857084Y712132D01*
X856990D01*
X856931Y712143D01*
X856849D01*
X856755Y712155D01*
X856532Y712202D01*
X856286Y712261D01*
X856028Y712355D01*
X855769Y712484D01*
X855640Y712566D01*
X855523Y712660D01*
X855511Y712672D01*
X855499Y712683D01*
X855464Y712719D01*
X855429Y712754D01*
X855382Y712812D01*
X855323Y712883D01*
X855206Y713047D01*
X855089Y713258D01*
X854971Y713516D01*
X854877Y713810D01*
X854807Y714150D01*
X855769Y714232D01*
Y714221D01*
X855781Y714197D01*
Y714174D01*
X855793Y714127D01*
X855828Y713998D01*
X855875Y713857D01*
X855934Y713692D01*
X856016Y713528D01*
X856110Y713376D01*
X856227Y713247D01*
X856239Y713235D01*
X856286Y713200D01*
X856368Y713153D01*
X856462Y713106D01*
X856591Y713047D01*
X856743Y713000D01*
X856919Y712965D01*
X857107Y712953D01*
X857189D01*
X857271Y712965D01*
X857377Y712977D01*
X857506Y713000D01*
X857635Y713035D01*
X857776Y713082D01*
X857905Y713153D01*
X857917Y713164D01*
X857964Y713188D01*
X858034Y713235D01*
X858105Y713305D01*
X858198Y713387D01*
X858292Y713481D01*
X858386Y713587D01*
X858480Y713716D01*
X858492Y713728D01*
X858515Y713786D01*
X858562Y713868D01*
X858609Y713974D01*
X858668Y714115D01*
X858727Y714279D01*
X858785Y714467D01*
X858844Y714678D01*
Y714690D01*
X858856Y714702D01*
Y714737D01*
X858867Y714784D01*
X858891Y714901D01*
X858926Y715054D01*
X858950Y715241D01*
X858973Y715441D01*
X858985Y715664D01*
X858996Y715899D01*
Y715910D01*
Y715946D01*
Y716004D01*
Y716098D01*
X858985Y716075D01*
X858938Y716016D01*
X858867Y715934D01*
X858785Y715816D01*
X858668Y715699D01*
X858527Y715570D01*
X858363Y715441D01*
X858175Y715324D01*
X858151Y715312D01*
X858081Y715277D01*
X857975Y715230D01*
X857846Y715183D01*
X857670Y715124D01*
X857483Y715077D01*
X857271Y715042D01*
X857048Y715030D01*
X856955D01*
X856884Y715042D01*
X856790Y715054D01*
X856696Y715065D01*
X856579Y715089D01*
X856462Y715124D01*
X856192Y715206D01*
X856051Y715265D01*
X855910Y715335D01*
X855758Y715417D01*
X855617Y715523D01*
X855476Y715629D01*
X855347Y715758D01*
X855335Y715770D01*
X855312Y715793D01*
X855288Y715828D01*
X855241Y715887D01*
X855183Y715969D01*
X855124Y716051D01*
X855065Y716157D01*
X855007Y716274D01*
X854936Y716403D01*
X854877Y716544D01*
X854819Y716708D01*
X854760Y716873D01*
X854713Y717060D01*
X854690Y717260D01*
X854666Y717459D01*
X854655Y717682D01*
Y717694D01*
Y717741D01*
Y717800D01*
X854666Y717882D01*
X854678Y717987D01*
X854690Y718117D01*
X854713Y718246D01*
X854748Y718398D01*
X854831Y718703D01*
X854889Y718867D01*
X854960Y719044D01*
X855042Y719208D01*
X855147Y719360D01*
X855253Y719525D01*
X855382Y719666D01*
X855394Y719677D01*
X855417Y719701D01*
X855452Y719736D01*
X855511Y719783D01*
X855582Y719842D01*
X855676Y719912D01*
X855769Y719971D01*
X855887Y720053D01*
X856004Y720123D01*
X856145Y720182D01*
X856462Y720311D01*
X856626Y720358D01*
X856814Y720393D01*
X857001Y720416D01*
X857201Y720428D01*
X857283D01*
X857342Y720416D01*
D02*
G37*
G36*
X850747Y720381D02*
X850853D01*
X851099Y720370D01*
X851357Y720334D01*
X851639Y720299D01*
X851897Y720240D01*
X852026Y720205D01*
X852132Y720170D01*
X852143D01*
X852155Y720158D01*
X852225Y720123D01*
X852331Y720076D01*
X852460Y719994D01*
X852601Y719889D01*
X852754Y719748D01*
X852894Y719583D01*
X853035Y719396D01*
Y719384D01*
X853047Y719372D01*
X853094Y719302D01*
X853141Y719184D01*
X853211Y719032D01*
X853270Y718856D01*
X853328Y718645D01*
X853364Y718422D01*
X853375Y718175D01*
Y718163D01*
Y718140D01*
Y718093D01*
X853364Y718034D01*
Y717952D01*
X853352Y717870D01*
X853305Y717671D01*
X853235Y717436D01*
X853141Y717189D01*
X853000Y716943D01*
X852906Y716826D01*
X852812Y716708D01*
X852801Y716697D01*
X852789Y716685D01*
X852754Y716650D01*
X852707Y716614D01*
X852648Y716568D01*
X852578Y716521D01*
X852484Y716462D01*
X852390Y716392D01*
X852272Y716333D01*
X852143Y716274D01*
X852002Y716204D01*
X851850Y716145D01*
X851674Y716098D01*
X851498Y716039D01*
X851298Y716004D01*
X851087Y715969D01*
X851111Y715957D01*
X851158Y715934D01*
X851228Y715887D01*
X851322Y715840D01*
X851533Y715711D01*
X851639Y715629D01*
X851733Y715558D01*
X851756Y715535D01*
X851815Y715476D01*
X851909Y715382D01*
X852026Y715265D01*
X852155Y715101D01*
X852308Y714925D01*
X852460Y714713D01*
X852624Y714479D01*
X854021Y712273D01*
X852683D01*
X851615Y713962D01*
Y713974D01*
X851592Y713998D01*
X851568Y714033D01*
X851533Y714080D01*
X851451Y714209D01*
X851345Y714373D01*
X851216Y714549D01*
X851087Y714737D01*
X850958Y714913D01*
X850841Y715077D01*
X850829Y715089D01*
X850794Y715136D01*
X850735Y715206D01*
X850653Y715288D01*
X850477Y715464D01*
X850383Y715547D01*
X850289Y715617D01*
X850277Y715629D01*
X850254Y715640D01*
X850207Y715664D01*
X850137Y715699D01*
X850066Y715734D01*
X849984Y715770D01*
X849796Y715828D01*
X849785D01*
X849761Y715840D01*
X849714D01*
X849656Y715852D01*
X849573Y715863D01*
X849480D01*
X849350Y715875D01*
X847966D01*
Y712273D01*
X846886D01*
Y720393D01*
X850653D01*
X850747Y720381D01*
D02*
G37*
%LPC*%
G36*
X607385Y786176D02*
X604312D01*
Y782947D01*
X607216D01*
X607385Y782961D01*
X607582Y782975D01*
X607808Y782990D01*
X608033Y783018D01*
X608259Y783060D01*
X608456Y783117D01*
X608484Y783131D01*
X608541Y783159D01*
X608625Y783201D01*
X608738Y783258D01*
X608865Y783342D01*
X608992Y783441D01*
X609119Y783568D01*
X609217Y783709D01*
X609231Y783723D01*
X609260Y783779D01*
X609302Y783864D01*
X609358Y783976D01*
X609401Y784103D01*
X609443Y784244D01*
X609471Y784413D01*
X609485Y784583D01*
Y784597D01*
Y784611D01*
X609471Y784695D01*
X609457Y784822D01*
X609429Y784991D01*
X609358Y785161D01*
X609274Y785358D01*
X609147Y785541D01*
X608978Y785724D01*
X608950Y785739D01*
X608879Y785795D01*
X608766Y785865D01*
X608583Y785950D01*
X608372Y786035D01*
X608090Y786105D01*
X607765Y786161D01*
X607385Y786176D01*
D02*
G37*
G36*
X623131Y786317D02*
X623018D01*
X622892Y786288D01*
X622722Y786260D01*
X622539Y786204D01*
X622342Y786133D01*
X622159Y786021D01*
X621975Y785865D01*
X621961Y785851D01*
X621905Y785795D01*
X621834Y785696D01*
X621764Y785569D01*
X621679Y785414D01*
X621609Y785231D01*
X621552Y785034D01*
X621538Y784808D01*
Y784794D01*
Y784780D01*
X621552Y784695D01*
X621566Y784568D01*
X621595Y784413D01*
X621651Y784230D01*
X621721Y784047D01*
X621834Y783849D01*
X621975Y783680D01*
X621989Y783666D01*
X622060Y783610D01*
X622159Y783539D01*
X622285Y783469D01*
X622454Y783384D01*
X622652Y783314D01*
X622877Y783258D01*
X623131Y783243D01*
X623159D01*
X623244Y783258D01*
X623371Y783272D01*
X623540Y783300D01*
X623723Y783356D01*
X623907Y783427D01*
X624104Y783539D01*
X624273Y783680D01*
X624287Y783695D01*
X624343Y783765D01*
X624414Y783849D01*
X624499Y783976D01*
X624583Y784131D01*
X624654Y784315D01*
X624710Y784526D01*
X624724Y784752D01*
Y784766D01*
Y784780D01*
Y784865D01*
X624696Y784991D01*
X624668Y785146D01*
X624611Y785316D01*
X624527Y785499D01*
X624414Y785682D01*
X624259Y785865D01*
X624245Y785880D01*
X624174Y785936D01*
X624076Y786006D01*
X623949Y786091D01*
X623780Y786176D01*
X623596Y786246D01*
X623371Y786302D01*
X623131Y786317D01*
D02*
G37*
G36*
X623089Y782271D02*
X623004D01*
X622948Y782257D01*
X622793Y782243D01*
X622595Y782200D01*
X622370Y782130D01*
X622144Y782031D01*
X621905Y781890D01*
X621693Y781707D01*
X621665Y781679D01*
X621609Y781608D01*
X621524Y781481D01*
X621425Y781326D01*
X621313Y781115D01*
X621228Y780875D01*
X621172Y780607D01*
X621143Y780311D01*
Y780283D01*
Y780227D01*
X621158Y780128D01*
X621172Y780001D01*
X621200Y779846D01*
X621242Y779677D01*
X621299Y779508D01*
X621369Y779324D01*
X621383Y779310D01*
X621411Y779240D01*
X621468Y779155D01*
X621552Y779057D01*
X621651Y778930D01*
X621778Y778803D01*
X621919Y778690D01*
X622088Y778577D01*
X622116Y778563D01*
X622173Y778535D01*
X622271Y778493D01*
X622398Y778450D01*
X622553Y778408D01*
X622736Y778366D01*
X622934Y778338D01*
X623131Y778324D01*
X623216D01*
X623272Y778338D01*
X623441Y778352D01*
X623639Y778394D01*
X623864Y778465D01*
X624104Y778549D01*
X624329Y778690D01*
X624555Y778873D01*
X624583Y778902D01*
X624640Y778972D01*
X624738Y779099D01*
X624837Y779254D01*
X624936Y779451D01*
X625034Y779691D01*
X625091Y779973D01*
X625119Y780269D01*
Y780283D01*
Y780311D01*
Y780353D01*
X625105Y780410D01*
X625091Y780565D01*
X625048Y780776D01*
X624978Y780988D01*
X624879Y781227D01*
X624738Y781467D01*
X624541Y781693D01*
X624513Y781721D01*
X624442Y781777D01*
X624315Y781876D01*
X624146Y781989D01*
X623935Y782087D01*
X623681Y782186D01*
X623399Y782243D01*
X623089Y782271D01*
D02*
G37*
G36*
X857447Y719607D02*
X857260D01*
X857213Y719595D01*
X857084Y719583D01*
X856931Y719536D01*
X856743Y719478D01*
X856544Y719372D01*
X856344Y719243D01*
X856251Y719149D01*
X856157Y719055D01*
Y719044D01*
X856133Y719032D01*
X856110Y718997D01*
X856086Y718961D01*
X856004Y718844D01*
X855922Y718680D01*
X855828Y718480D01*
X855746Y718234D01*
X855699Y717952D01*
X855676Y717647D01*
Y717635D01*
Y717612D01*
Y717577D01*
X855687Y717518D01*
Y717448D01*
X855699Y717377D01*
X855734Y717201D01*
X855793Y717002D01*
X855863Y716790D01*
X855981Y716579D01*
X856133Y716392D01*
X856157Y716368D01*
X856215Y716321D01*
X856321Y716239D01*
X856450Y716157D01*
X856626Y716063D01*
X856825Y715981D01*
X857048Y715934D01*
X857295Y715910D01*
X857365D01*
X857412Y715922D01*
X857541Y715934D01*
X857694Y715969D01*
X857882Y716028D01*
X858069Y716110D01*
X858257Y716227D01*
X858433Y716392D01*
X858457Y716415D01*
X858504Y716485D01*
X858574Y716591D01*
X858668Y716743D01*
X858750Y716931D01*
X858820Y717154D01*
X858867Y717424D01*
X858891Y717729D01*
Y717741D01*
Y717765D01*
Y717811D01*
X858879Y717870D01*
Y717952D01*
X858867Y718034D01*
X858832Y718222D01*
X858785Y718445D01*
X858703Y718680D01*
X858586Y718903D01*
X858433Y719102D01*
Y719114D01*
X858410Y719126D01*
X858351Y719184D01*
X858257Y719267D01*
X858128Y719360D01*
X857964Y719443D01*
X857776Y719525D01*
X857565Y719583D01*
X857447Y719607D01*
D02*
G37*
G36*
X850524Y719490D02*
X847966D01*
Y716802D01*
X850383D01*
X850524Y716814D01*
X850688Y716826D01*
X850876Y716837D01*
X851064Y716861D01*
X851252Y716896D01*
X851416Y716943D01*
X851439Y716955D01*
X851486Y716978D01*
X851557Y717013D01*
X851650Y717060D01*
X851756Y717131D01*
X851862Y717213D01*
X851967Y717318D01*
X852049Y717436D01*
X852061Y717448D01*
X852085Y717495D01*
X852120Y717565D01*
X852167Y717659D01*
X852202Y717765D01*
X852237Y717882D01*
X852261Y718023D01*
X852272Y718163D01*
Y718175D01*
Y718187D01*
X852261Y718257D01*
X852249Y718363D01*
X852225Y718504D01*
X852167Y718645D01*
X852096Y718809D01*
X851991Y718961D01*
X851850Y719114D01*
X851826Y719126D01*
X851768Y719173D01*
X851674Y719231D01*
X851521Y719302D01*
X851345Y719372D01*
X851111Y719431D01*
X850841Y719478D01*
X850524Y719490D01*
D02*
G37*
%LPD*%
D10*
X406130Y1043220D02*
G03*
X406130Y1043220I-1000J0D01*
G01*
X535940Y919280D02*
G03*
X523240Y919280I-6350J0D01*
G01*
X759810Y718820D02*
G03*
X759810Y718820I-40000J0D01*
G01*
X527050Y1061520D02*
G03*
X514350Y1061520I-6350J0D01*
G01*
X1247770Y929640D02*
G03*
X1247770Y929640I-40000J0D01*
G01*
X635000Y793550D02*
G03*
X622300Y793550I-6350J0D01*
G01*
X760730Y791010D02*
G03*
X748030Y791010I-6350J0D01*
G01*
X1186180Y688140D02*
G03*
X1173480Y688140I-6350J0D01*
G01*
X1018540Y686870D02*
G03*
X1005840Y686870I-6350J0D01*
G01*
X558160Y684530D02*
G03*
X558160Y684530I-40000J0D01*
G01*
X556090Y919280D02*
Y1021280D01*
X503090Y919280D02*
Y1021280D01*
X535940Y919280D02*
X556090D01*
X503090D02*
X523240D01*
X503090Y1021280D02*
X556090D01*
X912620Y1050650D02*
X918620D01*
X938120D02*
X944120D01*
Y1095650D01*
X912620D02*
X918620D01*
X938120D02*
X944120D01*
X912620Y1050650D02*
Y1095650D01*
X1281430Y757930D02*
Y764230D01*
Y884230D02*
Y890530D01*
X1261430Y884230D02*
X1301430D01*
X1261430Y764230D02*
Y884230D01*
Y764230D02*
X1301430D01*
Y884230D01*
X909750Y507020D02*
Y564520D01*
Y507020D02*
X1008750D01*
Y564520D01*
X909750D02*
X1008750D01*
X1429390Y910620D02*
Y984620D01*
X1371890Y910620D02*
X1429390D01*
X1371890D02*
Y984620D01*
X1429390D01*
X782950Y914370D02*
X880750D01*
X782950D02*
Y1012170D01*
X880750D01*
Y914370D02*
Y1012170D01*
X662660Y718820D02*
X675360D01*
X669010Y712470D02*
Y725170D01*
X547200Y1061520D02*
Y1163520D01*
X494200Y1061520D02*
Y1163520D01*
X527050Y1061520D02*
X547200D01*
X494200D02*
X514350D01*
X494200Y1163520D02*
X547200D01*
X1252220Y929640D02*
X1264920D01*
X1258570Y923290D02*
Y935990D01*
X655150Y793550D02*
Y895550D01*
X602150Y793550D02*
Y895550D01*
X635000Y793550D02*
X655150D01*
X602150D02*
X622300D01*
X602150Y895550D02*
X655150D01*
X780880Y791010D02*
Y893010D01*
X727880Y791010D02*
Y893010D01*
X760730Y791010D02*
X780880D01*
X727880D02*
X748030D01*
X727880Y893010D02*
X780880D01*
X1206330Y688140D02*
Y790140D01*
X1153330Y688140D02*
Y790140D01*
X1186180Y688140D02*
X1206330D01*
X1153330D02*
X1173480D01*
X1153330Y790140D02*
X1206330D01*
X1038690Y686870D02*
Y788870D01*
X985690Y686870D02*
Y788870D01*
X1018540Y686870D02*
X1038690D01*
X985690D02*
X1005840D01*
X985690Y788870D02*
X1038690D01*
X847950Y1099460D02*
X853950D01*
X822450D02*
X828450D01*
X822450Y1054460D02*
Y1099460D01*
X847950Y1054460D02*
X853950D01*
X822450D02*
X828450D01*
X853950D02*
Y1099460D01*
X1034640Y965710D02*
X1040640D01*
X1009140D02*
X1015140D01*
X1009140Y920710D02*
Y965710D01*
X1034640Y920710D02*
X1040640D01*
X1009140D02*
X1015140D01*
X1040640D02*
Y965710D01*
X1443480Y830940D02*
X1449480D01*
X1468980D02*
X1474980D01*
Y875940D01*
X1443480D02*
X1449480D01*
X1468980D02*
X1474980D01*
X1443480Y830940D02*
Y875940D01*
X1501900Y829670D02*
Y874670D01*
X1527400D02*
X1533400D01*
X1501900D02*
X1507900D01*
X1533400Y829670D02*
Y874670D01*
X1527400Y829670D02*
X1533400D01*
X1501900D02*
X1507900D01*
X1054860Y1049380D02*
X1060860D01*
X1080360D02*
X1086360D01*
Y1094380D01*
X1054860D02*
X1060860D01*
X1080360D02*
X1086360D01*
X1054860Y1049380D02*
Y1094380D01*
X461010Y684530D02*
X473710D01*
X467360Y678180D02*
Y690880D01*
X730560Y1141730D02*
X736860D01*
X604260D02*
X610560D01*
Y1121730D02*
Y1161730D01*
Y1121730D02*
X730560D01*
Y1161730D01*
X610560D02*
X730560D01*
X441960Y1002510D02*
Y1008810D01*
Y876210D02*
Y882510D01*
X421960D02*
X461960D01*
Y1002510D01*
X421960D02*
X461960D01*
X421960Y882510D02*
Y1002510D01*
X366080Y886150D02*
Y1006150D01*
X406080D01*
Y886150D02*
Y1006150D01*
X366080Y886150D02*
X406080D01*
X386080Y879850D02*
Y886150D01*
Y1006150D02*
Y1012450D01*
X730560Y1016000D02*
X736860D01*
X604260D02*
X610560D01*
Y996000D02*
Y1036000D01*
Y996000D02*
X730560D01*
Y1036000D01*
X610560D02*
X730560D01*
X387090Y751840D02*
X393390D01*
X513390D02*
X519690D01*
X513390Y731840D02*
Y771840D01*
X393390D02*
X513390D01*
X393390Y731840D02*
Y771840D01*
Y731840D02*
X513390D01*
X604260Y1068070D02*
X610560D01*
X730560D02*
X736860D01*
X730560Y1048070D02*
Y1088070D01*
X610560D02*
X730560D01*
X610560Y1048070D02*
Y1088070D01*
Y1048070D02*
X730560D01*
X385990Y805180D02*
X392290D01*
X512290D02*
X518590D01*
X512290Y785180D02*
Y825180D01*
X392290D02*
X512290D01*
X392290Y785180D02*
Y825180D01*
Y785180D02*
X512290D01*
X609290Y959800D02*
X729290D01*
Y919800D02*
Y959800D01*
X609290Y919800D02*
X729290D01*
X609290D02*
Y959800D01*
X602990Y939800D02*
X609290D01*
X729290D02*
X735590D01*
X789680Y745490D02*
X795980D01*
X915980D02*
X922280D01*
X915980Y725490D02*
Y765490D01*
X795980D02*
X915980D01*
X795980Y725490D02*
Y765490D01*
Y725490D02*
X915980D01*
X903600Y1012220D02*
X1001400D01*
Y914420D02*
Y1012220D01*
X903600Y914420D02*
X1001400D01*
X903600D02*
Y1012220D01*
X1050920Y909340D02*
Y1007140D01*
Y909340D02*
X1148720D01*
Y1007140D01*
X1050920D02*
X1148720D01*
X829940Y793770D02*
Y891570D01*
Y793770D02*
X927740D01*
Y891570D01*
X829940D02*
X927740D01*
X955670Y795040D02*
Y892840D01*
Y795040D02*
X1053470D01*
Y892840D01*
X955670D02*
X1053470D01*
X1350010Y755390D02*
Y761690D01*
Y881690D02*
Y887990D01*
X1330010Y881690D02*
X1370010D01*
X1330010Y761690D02*
Y881690D01*
Y761690D02*
X1370010D01*
Y881690D01*
X574670Y675000D02*
Y772800D01*
Y675000D02*
X672470D01*
Y772800D01*
X574670D02*
X672470D01*
X914710Y687070D02*
X921010D01*
X788410D02*
X794710D01*
Y667070D02*
Y707070D01*
Y667070D02*
X914710D01*
Y707070D01*
X794710D02*
X914710D01*
X1092200Y839610D02*
Y845910D01*
Y713310D02*
Y719610D01*
X1072200D02*
X1112200D01*
Y839610D01*
X1072200D02*
X1112200D01*
X1072200Y719610D02*
Y839610D01*
D11*
X1236170Y1229440D02*
G03*
X1236170Y1229440I-3000J0D01*
G01*
X1674400Y716280D02*
G03*
X1674400Y716280I-3000J0D01*
G01*
X718010Y402510D02*
G03*
X718010Y402510I-3000J0D01*
G01*
X1100280Y669370D02*
G03*
X1100280Y669370I-3000J0D01*
G01*
D12*
X568940Y919180D02*
G03*
X568940Y919180I-1250J0D01*
G01*
X905750Y541520D02*
G03*
X905750Y541520I-1250J0D01*
G01*
X1407140Y991370D02*
G03*
X1407140Y991370I-1250J0D01*
G01*
X886850Y985520D02*
G03*
X886850Y985520I-1250J0D01*
G01*
X560050Y1061420D02*
G03*
X560050Y1061420I-1250J0D01*
G01*
X668000Y793450D02*
G03*
X668000Y793450I-1250J0D01*
G01*
X793730Y790910D02*
G03*
X793730Y790910I-1250J0D01*
G01*
X1219180Y688040D02*
G03*
X1219180Y688040I-1250J0D01*
G01*
X1051540Y686770D02*
G03*
X1051540Y686770I-1250J0D01*
G01*
X900000Y941070D02*
G03*
X900000Y941070I-1250J0D01*
G01*
X1047320Y935990D02*
G03*
X1047320Y935990I-1250J0D01*
G01*
X826340Y820420D02*
G03*
X826340Y820420I-1250J0D01*
G01*
X952070Y821690D02*
G03*
X952070Y821690I-1250J0D01*
G01*
X571070Y701650D02*
G03*
X571070Y701650I-1250J0D01*
G01*
D13*
X549090Y929280D02*
G03*
X549090Y929280I-3000J0D01*
G01*
X540200Y1071520D02*
G03*
X540200Y1071520I-3000J0D01*
G01*
X648150Y803550D02*
G03*
X648150Y803550I-3000J0D01*
G01*
X773880Y801010D02*
G03*
X773880Y801010I-3000J0D01*
G01*
X1199330Y698140D02*
G03*
X1199330Y698140I-3000J0D01*
G01*
X1031690Y696870D02*
G03*
X1031690Y696870I-3000J0D01*
G01*
D14*
X345130Y1160220D02*
X465130D01*
X345130Y1050220D02*
Y1160220D01*
Y1050220D02*
X465130D01*
Y1160220D01*
X1167970Y1218540D02*
X1353870D01*
X1167970Y1126440D02*
Y1218540D01*
Y996340D02*
Y1088440D01*
Y996340D02*
X1353870D01*
Y1218540D01*
X1660500Y595580D02*
Y781480D01*
X1568400D02*
X1660500D01*
X1438300D02*
X1530400D01*
X1438300Y595580D02*
Y781480D01*
Y595580D02*
X1660500D01*
X594310Y413410D02*
X780210D01*
Y505510D01*
Y543510D02*
Y635610D01*
X594310D02*
X780210D01*
X594310Y413410D02*
Y635610D01*
X1032080Y658470D02*
X1217980D01*
X1032080Y566370D02*
Y658470D01*
Y436270D02*
Y528370D01*
Y436270D02*
X1217980D01*
Y658470D01*
D15*
X389895Y1214118D02*
X384817D01*
X387356D01*
Y1201422D01*
X384817Y1198883D01*
X382278D01*
X379739Y1201422D01*
X397513Y1209039D02*
X402591D01*
X405130Y1206500D01*
Y1198883D01*
X397513D01*
X394974Y1201422D01*
X397513Y1203961D01*
X405130D01*
X420365Y1209039D02*
X412748D01*
X410209Y1206500D01*
Y1201422D01*
X412748Y1198883D01*
X420365D01*
X425444D02*
Y1214118D01*
Y1203961D02*
X433061Y1209039D01*
X425444Y1203961D02*
X433061Y1198883D01*
X463042Y1019044D02*
X465581Y1021583D01*
X470659D01*
X473199Y1019044D01*
Y1016505D01*
X468120Y1011426D01*
Y1008887D02*
Y1006348D01*
X1386678Y1017468D02*
X1381600D01*
X1384139D01*
Y1004772D01*
X1381600Y1002233D01*
X1379061D01*
X1376521Y1004772D01*
X1401913Y1014929D02*
X1399374Y1017468D01*
X1394296D01*
X1391756Y1014929D01*
Y1012389D01*
X1394296Y1009850D01*
X1399374D01*
X1401913Y1007311D01*
Y1004772D01*
X1399374Y1002233D01*
X1394296D01*
X1391756Y1004772D01*
X1406991Y1017468D02*
X1417148D01*
X1412070D01*
Y1002233D01*
X1422227Y1009850D02*
X1432383D01*
X1447618Y1002233D02*
X1437462D01*
X1447618Y1012389D01*
Y1014929D01*
X1445079Y1017468D01*
X1440001D01*
X1437462Y1014929D01*
X1596388Y1131563D02*
X1586231D01*
X1581152Y1126485D01*
X1586231Y1121407D01*
X1596388D01*
X1581152Y1116328D02*
X1596388D01*
Y1108711D01*
X1593848Y1106172D01*
X1588770D01*
X1586231Y1108711D01*
Y1116328D01*
Y1111250D02*
X1581152Y1106172D01*
X1593848Y1101093D02*
X1596388Y1098554D01*
Y1093476D01*
X1593848Y1090937D01*
X1591309D01*
X1588770Y1093476D01*
Y1096015D01*
Y1093476D01*
X1586231Y1090937D01*
X1583692D01*
X1581152Y1093476D01*
Y1098554D01*
X1583692Y1101093D01*
X1235717Y645157D02*
Y635001D01*
X1240795Y629922D01*
X1245873Y635001D01*
Y645157D01*
X1250952Y629922D02*
Y645157D01*
X1258569D01*
X1261108Y642618D01*
Y637540D01*
X1258569Y635001D01*
X1250952D01*
X1256030D02*
X1261108Y629922D01*
X1276343D02*
X1266187D01*
X1276343Y640079D01*
Y642618D01*
X1273804Y645157D01*
X1268726D01*
X1266187Y642618D01*
X543566Y448307D02*
Y438151D01*
X548644Y433073D01*
X553722Y438151D01*
Y448307D01*
X558801Y433073D02*
Y448307D01*
X566418D01*
X568958Y445768D01*
Y440690D01*
X566418Y438151D01*
X558801D01*
X563879D02*
X568958Y433073D01*
X574036D02*
X579114D01*
X576575D01*
Y448307D01*
X574036Y445768D01*
X1278893Y730244D02*
X1294128D01*
Y722626D01*
X1291588Y720087D01*
X1286510D01*
X1283971Y722626D01*
Y730244D01*
Y725165D02*
X1278893Y720087D01*
Y715009D02*
Y709930D01*
Y712469D01*
X1294128D01*
X1291588Y715009D01*
X1294128Y692156D02*
X1291588Y697234D01*
X1286510Y702313D01*
X1281432D01*
X1278893Y699774D01*
Y694695D01*
X1281432Y692156D01*
X1283971D01*
X1286510Y694695D01*
Y702313D01*
X1123956Y805182D02*
Y820417D01*
X1131574D01*
X1134113Y817878D01*
Y812800D01*
X1131574Y810261D01*
X1123956D01*
X1129035D02*
X1134113Y805182D01*
X1139191D02*
X1144270D01*
X1141730D01*
Y820417D01*
X1139191Y817878D01*
X1151887D02*
X1154426Y820417D01*
X1159505D01*
X1162044Y817878D01*
Y815339D01*
X1159505Y812800D01*
X1156965D01*
X1159505D01*
X1162044Y810261D01*
Y807722D01*
X1159505Y805182D01*
X1154426D01*
X1151887Y807722D01*
X834396Y643893D02*
Y659128D01*
X842014D01*
X844553Y656588D01*
Y651510D01*
X842014Y648971D01*
X834396D01*
X839474D02*
X844553Y643893D01*
X849631D02*
X854710D01*
X852170D01*
Y659128D01*
X849631Y656588D01*
X862327D02*
X864866Y659128D01*
X869945D01*
X872484Y656588D01*
Y646432D01*
X869945Y643893D01*
X864866D01*
X862327Y646432D01*
Y656588D01*
X1629417Y572767D02*
Y562611D01*
X1634495Y557533D01*
X1639573Y562611D01*
Y572767D01*
X1644652Y557533D02*
Y572767D01*
X1652269D01*
X1654808Y570228D01*
Y565150D01*
X1652269Y562611D01*
X1644652D01*
X1649730D02*
X1654808Y557533D01*
X1667504D02*
Y572767D01*
X1659887Y565150D01*
X1670043D01*
X783590Y1021842D02*
Y1037077D01*
X791208D01*
X793747Y1034538D01*
Y1029460D01*
X791208Y1026920D01*
X783590D01*
X788668D02*
X793747Y1021842D01*
X798825D02*
X803903D01*
X801364D01*
Y1037077D01*
X798825Y1034538D01*
X811521Y1024381D02*
X814060Y1021842D01*
X819138D01*
X821678Y1024381D01*
Y1034538D01*
X819138Y1037077D01*
X814060D01*
X811521Y1034538D01*
Y1031999D01*
X814060Y1029460D01*
X821678D01*
X1342392Y728974D02*
X1357628D01*
Y721356D01*
X1355088Y718817D01*
X1350010D01*
X1347471Y721356D01*
Y728974D01*
Y723895D02*
X1342392Y718817D01*
Y713739D02*
Y708660D01*
Y711199D01*
X1357628D01*
X1355088Y713739D01*
X1357628Y701043D02*
Y690886D01*
X1355088D01*
X1344932Y701043D01*
X1342392D01*
X1059182Y885820D02*
X1071878D01*
Y879472D01*
X1069762Y877356D01*
X1065530D01*
X1063414Y879472D01*
Y885820D01*
Y881588D02*
X1059182Y877356D01*
Y873124D02*
Y868892D01*
Y871008D01*
X1071878D01*
X1069762Y873124D01*
X1071878Y854080D02*
Y862544D01*
X1065530D01*
X1067646Y858312D01*
Y856196D01*
X1065530Y854080D01*
X1061298D01*
X1059182Y856196D01*
Y860428D01*
X1061298Y862544D01*
X933453Y845814D02*
X948688D01*
Y838196D01*
X946148Y835657D01*
X941070D01*
X938531Y838196D01*
Y845814D01*
Y840735D02*
X933453Y835657D01*
Y830579D02*
Y825500D01*
Y828039D01*
X948688D01*
X946148Y830579D01*
X933453Y810265D02*
X948688D01*
X941070Y817883D01*
Y807726D01*
X1084586Y1012193D02*
Y1027428D01*
X1092204D01*
X1094743Y1024888D01*
Y1019810D01*
X1092204Y1017271D01*
X1084586D01*
X1089665D02*
X1094743Y1012193D01*
X1099821D02*
X1104900D01*
X1102360D01*
Y1027428D01*
X1099821Y1024888D01*
X1122674Y1012193D02*
X1112517D01*
X1122674Y1022349D01*
Y1024888D01*
X1120135Y1027428D01*
X1115056D01*
X1112517Y1024888D01*
X898906Y1021842D02*
Y1037077D01*
X906524D01*
X909063Y1034538D01*
Y1029460D01*
X906524Y1026920D01*
X898906D01*
X903984D02*
X909063Y1021842D01*
X914141D02*
X919219D01*
X916680D01*
Y1037077D01*
X914141Y1034538D01*
X926837Y1021842D02*
X931915D01*
X929376D01*
Y1037077D01*
X926837Y1034538D01*
X673104Y899163D02*
Y914398D01*
X680722D01*
X683261Y911858D01*
Y906780D01*
X680722Y904241D01*
X673104D01*
X678183D02*
X683261Y899163D01*
X688339Y911858D02*
X690878Y914398D01*
X695957D01*
X698496Y911858D01*
Y909319D01*
X695957Y906780D01*
X698496Y904241D01*
Y901702D01*
X695957Y899163D01*
X690878D01*
X688339Y901702D01*
Y904241D01*
X690878Y906780D01*
X688339Y909319D01*
Y911858D01*
X690878Y906780D02*
X695957D01*
X543564Y807722D02*
Y822958D01*
X551182D01*
X553721Y820418D01*
Y815340D01*
X551182Y812801D01*
X543564D01*
X548643D02*
X553721Y807722D01*
X558799Y822958D02*
X568956D01*
Y820418D01*
X558799Y810262D01*
Y807722D01*
X655324Y1096012D02*
Y1111247D01*
X662942D01*
X665481Y1108708D01*
Y1103630D01*
X662942Y1101091D01*
X655324D01*
X660403D02*
X665481Y1096012D01*
X680716Y1111247D02*
X675638Y1108708D01*
X670559Y1103630D01*
Y1098552D01*
X673098Y1096012D01*
X678177D01*
X680716Y1098552D01*
Y1101091D01*
X678177Y1103630D01*
X670559D01*
X430534Y704853D02*
Y720088D01*
X438152D01*
X440691Y717548D01*
Y712470D01*
X438152Y709931D01*
X430534D01*
X435612D02*
X440691Y704853D01*
X455926Y720088D02*
X445769D01*
Y712470D01*
X450848Y715009D01*
X453387D01*
X455926Y712470D01*
Y707392D01*
X453387Y704853D01*
X448308D01*
X445769Y707392D01*
X689606Y989327D02*
Y974092D01*
X681988D01*
X679449Y976632D01*
Y981710D01*
X681988Y984249D01*
X689606D01*
X684528D02*
X679449Y989327D01*
X666753D02*
Y974092D01*
X674371Y981710D01*
X664214D01*
X373384Y835474D02*
Y850709D01*
X381002D01*
X383541Y848170D01*
Y843092D01*
X381002Y840552D01*
X373384D01*
X378462D02*
X383541Y835474D01*
X388619Y848170D02*
X391158Y850709D01*
X396237D01*
X398776Y848170D01*
Y845631D01*
X396237Y843092D01*
X393698D01*
X396237D01*
X398776Y840552D01*
Y838013D01*
X396237Y835474D01*
X391158D01*
X388619Y838013D01*
X436884Y834392D02*
Y849628D01*
X444502D01*
X447041Y847088D01*
Y842010D01*
X444502Y839471D01*
X436884D01*
X441963D02*
X447041Y834392D01*
X462276D02*
X452119D01*
X462276Y844549D01*
Y847088D01*
X459737Y849628D01*
X454658D01*
X452119Y847088D01*
X661673Y1169672D02*
Y1184908D01*
X669291D01*
X671830Y1182368D01*
Y1177290D01*
X669291Y1174751D01*
X661673D01*
X666752D02*
X671830Y1169672D01*
X676908D02*
X681987D01*
X679448D01*
Y1184908D01*
X676908Y1182368D01*
X930917Y492757D02*
X925839D01*
X928378D01*
Y480062D01*
X925839Y477523D01*
X923300D01*
X920761Y480062D01*
X946152Y490218D02*
X943613Y492757D01*
X938535D01*
X935996Y490218D01*
Y487679D01*
X938535Y485140D01*
X943613D01*
X946152Y482601D01*
Y480062D01*
X943613Y477523D01*
X938535D01*
X935996Y480062D01*
X951231Y492757D02*
X961388D01*
X956309D01*
Y477523D01*
X966466Y485140D02*
X976623D01*
X981701Y477523D02*
X986779D01*
X984240D01*
Y492757D01*
X981701Y490218D01*
X688343Y779778D02*
X678187D01*
Y764542D01*
X688343D01*
X678187Y772160D02*
X683265D01*
X703578Y777238D02*
X701039Y779778D01*
X695961D01*
X693422Y777238D01*
Y767082D01*
X695961Y764542D01*
X701039D01*
X703578Y767082D01*
X718813Y764542D02*
X708657D01*
X718813Y774699D01*
Y777238D01*
X716274Y779778D01*
X711196D01*
X708657Y777238D01*
X534952Y636268D02*
X524796D01*
Y621032D01*
X534952D01*
X524796Y628650D02*
X529874D01*
X550187Y633728D02*
X547648Y636268D01*
X542570D01*
X540031Y633728D01*
Y623572D01*
X542570Y621032D01*
X547648D01*
X550187Y623572D01*
X555266Y621032D02*
X560344D01*
X557805D01*
Y636268D01*
X555266Y633728D01*
X923287Y1126486D02*
X920748Y1129025D01*
X915669D01*
X913130Y1126486D01*
Y1116329D01*
X915669Y1113790D01*
X920748D01*
X923287Y1116329D01*
X938522Y1126486D02*
X935983Y1129025D01*
X930904D01*
X928365Y1126486D01*
Y1116329D01*
X930904Y1113790D01*
X935983D01*
X938522Y1116329D01*
X953757Y1129025D02*
X948679Y1126486D01*
X943600Y1121407D01*
Y1116329D01*
X946139Y1113790D01*
X951218D01*
X953757Y1116329D01*
Y1118868D01*
X951218Y1121407D01*
X943600D01*
X1065527Y1125216D02*
X1062988Y1127755D01*
X1057909D01*
X1055370Y1125216D01*
Y1115059D01*
X1057909Y1112520D01*
X1062988D01*
X1065527Y1115059D01*
X1080762Y1125216D02*
X1078223Y1127755D01*
X1073144D01*
X1070605Y1125216D01*
Y1115059D01*
X1073144Y1112520D01*
X1078223D01*
X1080762Y1115059D01*
X1095997Y1127755D02*
X1085840D01*
Y1120137D01*
X1090919Y1122677D01*
X1093458D01*
X1095997Y1120137D01*
Y1115059D01*
X1093458Y1112520D01*
X1088379D01*
X1085840Y1115059D01*
X1518918Y923287D02*
X1521458Y925826D01*
Y930904D01*
X1518918Y933443D01*
X1508762D01*
X1506223Y930904D01*
Y925826D01*
X1508762Y923287D01*
X1518918Y908052D02*
X1521458Y910591D01*
Y915669D01*
X1518918Y918208D01*
X1508762D01*
X1506223Y915669D01*
Y910591D01*
X1508762Y908052D01*
X1506223Y895356D02*
X1521458D01*
X1513840Y902973D01*
Y892816D01*
X1463038Y923287D02*
X1465578Y925826D01*
Y930904D01*
X1463038Y933443D01*
X1452882D01*
X1450343Y930904D01*
Y925826D01*
X1452882Y923287D01*
X1463038Y908052D02*
X1465578Y910591D01*
Y915669D01*
X1463038Y918208D01*
X1452882D01*
X1450343Y915669D01*
Y910591D01*
X1452882Y908052D01*
X1463038Y902973D02*
X1465578Y900434D01*
Y895356D01*
X1463038Y892816D01*
X1460499D01*
X1457960Y895356D01*
Y897895D01*
Y895356D01*
X1455421Y892816D01*
X1452882D01*
X1450343Y895356D01*
Y900434D01*
X1452882Y902973D01*
X1027428Y1024887D02*
X1029968Y1027426D01*
Y1032504D01*
X1027428Y1035043D01*
X1017272D01*
X1014733Y1032504D01*
Y1027426D01*
X1017272Y1024887D01*
X1027428Y1009652D02*
X1029968Y1012191D01*
Y1017269D01*
X1027428Y1019808D01*
X1017272D01*
X1014733Y1017269D01*
Y1012191D01*
X1017272Y1009652D01*
X1014733Y994417D02*
Y1004573D01*
X1024889Y994417D01*
X1027428D01*
X1029968Y996956D01*
Y1002034D01*
X1027428Y1004573D01*
X833117Y1130296D02*
X830577Y1132835D01*
X825499D01*
X822960Y1130296D01*
Y1120139D01*
X825499Y1117600D01*
X830577D01*
X833117Y1120139D01*
X848352Y1130296D02*
X845813Y1132835D01*
X840734D01*
X838195Y1130296D01*
Y1120139D01*
X840734Y1117600D01*
X845813D01*
X848352Y1120139D01*
X853430Y1117600D02*
X858509D01*
X855969D01*
Y1132835D01*
X853430Y1130296D01*
X1014728Y679447D02*
X1009650Y676908D01*
X1004572Y671830D01*
Y666752D01*
X1007111Y664212D01*
X1012189D01*
X1014728Y666752D01*
Y669291D01*
X1012189Y671830D01*
X1004572D01*
X1184908Y680717D02*
X1174752D01*
Y673100D01*
X1179830Y675639D01*
X1182369D01*
X1184908Y673100D01*
Y668022D01*
X1182369Y665482D01*
X1177291D01*
X1174752Y668022D01*
X759459Y897893D02*
Y913128D01*
X751842Y905510D01*
X761998D01*
X628228Y912282D02*
X630344Y914398D01*
X634576D01*
X636692Y912282D01*
Y910166D01*
X634576Y908050D01*
X632460D01*
X634576D01*
X636692Y905934D01*
Y903818D01*
X634576Y901702D01*
X630344D01*
X628228Y903818D01*
X1221745Y871222D02*
X1226824D01*
X1224285D01*
Y886457D01*
X1221745Y883918D01*
X1234441Y878840D02*
X1239520D01*
X1234441Y876300D02*
X1239520D01*
Y886457D02*
Y868683D01*
X1254755Y886457D02*
X1244598D01*
Y878840D01*
X1249676D01*
X1244598D01*
Y871222D01*
X519431Y1035052D02*
X524509D01*
X521970D01*
Y1050287D01*
X519431Y1047748D01*
M02*
