M48
;Layer_Color=9474304
;FILE_FORMAT=4:4
METRIC,LZ
;TYPE=PLATED
T01F00S00C0.7000
T02F00S00C0.7500
T04F00S00C0.9000
T05F00S00C1.0000
T06F00S00C2.0800
;TYPE=NON_PLATED
T07F00S00C1.2000
%
T01
X008382Y0105196
Y0110196
X0092837Y0109815
Y0104815
X0107061Y0104688
Y0109688
X0102489Y0096821
Y0091821
X0145923Y0087844
Y0082844
X0151765Y0082717
Y0087717
T02
X0059817Y0070165
X0064897
X0062357Y0075245
X0085344Y0082042
X0090424
X0087884Y0087122
X0083185Y0093472
X0085725Y0098552
X0080645
X009525Y0099187
X009271Y0094107
X009779
X0100457Y0087249
X0102997Y0082169
X0097917
X0107442Y0093599
X0112522
X0109982Y0098679
T04
X0121793Y0070104
Y0072644
Y0075184
Y0077724
X0128143Y0074693
X0135001Y0074439
X0114173Y0075184
Y0072644
Y0070104
X010922Y0070231
X0105029Y0069977
Y0072517
Y0075057
Y0077597
X0097409
Y0075057
Y0072517
Y0069977
X0093201Y0068707
X0093328Y0074549
X0093425Y0054102
X0095925
X0098425
X0114173Y0077724
X0077868Y0074549
X0077741Y0068707
X0073731Y0071882
X0070231
X0053566Y0068453
X0050066
X0053069Y0075184
X0037609
X0037499Y0080518
X0038608Y0086885
Y0102345
X0044196Y0101981
X0049149Y0100838
Y0098298
Y0095758
Y0093218
X0056769
Y0095758
Y0098298
Y0100838
X0059326Y01016
Y0106807
X005588Y0107442
Y0109982
Y0112522
Y0115062
X0059326Y0114173
X004826Y0115062
Y0112522
Y0109982
Y0107442
X0059199Y009398
X0059055Y0088265
Y0085725
Y0083185
Y0080645
X0052959Y0080518
X0066675Y0080645
Y0083185
Y0085725
Y0088265
X0071628Y0088011
Y0085471
Y0082931
Y0080391
X0079248
Y0082931
Y0085471
Y0088011
X0074659Y009398
X0074786Y01016
Y0106807
Y0114173
X0044196Y0086521
X010922Y0085691
X0119027Y0092964
X0122527
X0128143Y0090153
X0135001Y0089899
T05
X0140589Y0093512
Y0096012
T06
X015494Y0066548
Y0071628
Y0076708
X0114808Y0054737
X0109728
X0104648
X0076581Y0052451
X0071501
X0066421
X0118237Y0110744
X0123317
X0128397
T07
X0035513Y0112522
Y0115022
X0045513
Y0112522
X0040513Y0107522
M30
